<mxfile host="app.diagrams.net" agent="Mozilla/5.0 (Windows NT 10.0; Win64; x64; rv:130.0) Gecko/20100101 Firefox/130.0" version="24.7.16">
  <diagram id="C5RBs43oDa-KdzZeNtuy" name="Page-1">
    <mxGraphModel dx="1272" dy="1961" grid="1" gridSize="10" guides="1" tooltips="1" connect="1" arrows="1" fold="1" page="1" pageScale="1" pageWidth="827" pageHeight="1169" math="0" shadow="0">
      <root>
        <mxCell id="WIyWlLk6GJQsqaUBKTNV-0" />
        <mxCell id="WIyWlLk6GJQsqaUBKTNV-1" parent="WIyWlLk6GJQsqaUBKTNV-0" />
        <mxCell id="oCqQ5Aj07aLdvRWGt-kK-4" value="" style="edgeStyle=orthogonalEdgeStyle;rounded=0;orthogonalLoop=1;jettySize=auto;html=1;" edge="1" parent="WIyWlLk6GJQsqaUBKTNV-1" source="oCqQ5Aj07aLdvRWGt-kK-0" target="oCqQ5Aj07aLdvRWGt-kK-2">
          <mxGeometry relative="1" as="geometry" />
        </mxCell>
        <mxCell id="oCqQ5Aj07aLdvRWGt-kK-0" value="&lt;div&gt;START&lt;/div&gt;" style="ellipse;whiteSpace=wrap;html=1;" vertex="1" parent="WIyWlLk6GJQsqaUBKTNV-1">
          <mxGeometry x="160" y="-60" width="120" height="80" as="geometry" />
        </mxCell>
        <mxCell id="oCqQ5Aj07aLdvRWGt-kK-6" value="" style="edgeStyle=orthogonalEdgeStyle;rounded=0;orthogonalLoop=1;jettySize=auto;html=1;" edge="1" parent="WIyWlLk6GJQsqaUBKTNV-1" source="oCqQ5Aj07aLdvRWGt-kK-2" target="oCqQ5Aj07aLdvRWGt-kK-5">
          <mxGeometry relative="1" as="geometry" />
        </mxCell>
        <mxCell id="oCqQ5Aj07aLdvRWGt-kK-2" value="&lt;div&gt;leva = 0&lt;/div&gt;&lt;div&gt;praba = delka seznamu-1&lt;br&gt;&lt;/div&gt;" style="shape=parallelogram;perimeter=parallelogramPerimeter;whiteSpace=wrap;html=1;fixedSize=1;" vertex="1" parent="WIyWlLk6GJQsqaUBKTNV-1">
          <mxGeometry x="125" y="100" width="190" height="80" as="geometry" />
        </mxCell>
        <mxCell id="oCqQ5Aj07aLdvRWGt-kK-9" value="" style="edgeStyle=orthogonalEdgeStyle;rounded=0;orthogonalLoop=1;jettySize=auto;html=1;" edge="1" parent="WIyWlLk6GJQsqaUBKTNV-1" source="oCqQ5Aj07aLdvRWGt-kK-5" target="oCqQ5Aj07aLdvRWGt-kK-8">
          <mxGeometry relative="1" as="geometry" />
        </mxCell>
        <mxCell id="oCqQ5Aj07aLdvRWGt-kK-12" value="ANO" style="edgeLabel;html=1;align=center;verticalAlign=middle;resizable=0;points=[];" vertex="1" connectable="0" parent="oCqQ5Aj07aLdvRWGt-kK-9">
          <mxGeometry x="-0.2103" relative="1" as="geometry">
            <mxPoint as="offset" />
          </mxGeometry>
        </mxCell>
        <mxCell id="oCqQ5Aj07aLdvRWGt-kK-14" value="" style="edgeStyle=orthogonalEdgeStyle;rounded=0;orthogonalLoop=1;jettySize=auto;html=1;" edge="1" parent="WIyWlLk6GJQsqaUBKTNV-1" source="oCqQ5Aj07aLdvRWGt-kK-5" target="oCqQ5Aj07aLdvRWGt-kK-13">
          <mxGeometry relative="1" as="geometry" />
        </mxCell>
        <mxCell id="oCqQ5Aj07aLdvRWGt-kK-24" value="NE" style="edgeLabel;html=1;align=center;verticalAlign=middle;resizable=0;points=[];" vertex="1" connectable="0" parent="oCqQ5Aj07aLdvRWGt-kK-14">
          <mxGeometry x="-0.0226" y="-1" relative="1" as="geometry">
            <mxPoint as="offset" />
          </mxGeometry>
        </mxCell>
        <mxCell id="oCqQ5Aj07aLdvRWGt-kK-5" value="&lt;div&gt;minuly se prsticky?&lt;/div&gt;" style="rhombus;whiteSpace=wrap;html=1;" vertex="1" parent="WIyWlLk6GJQsqaUBKTNV-1">
          <mxGeometry x="150" y="230" width="140" height="80" as="geometry" />
        </mxCell>
        <mxCell id="oCqQ5Aj07aLdvRWGt-kK-11" value="" style="edgeStyle=orthogonalEdgeStyle;rounded=0;orthogonalLoop=1;jettySize=auto;html=1;" edge="1" parent="WIyWlLk6GJQsqaUBKTNV-1" source="oCqQ5Aj07aLdvRWGt-kK-8" target="oCqQ5Aj07aLdvRWGt-kK-10">
          <mxGeometry relative="1" as="geometry" />
        </mxCell>
        <mxCell id="oCqQ5Aj07aLdvRWGt-kK-8" value="return &quot;cislo neni v seznamu&quot;" style="shape=parallelogram;perimeter=parallelogramPerimeter;whiteSpace=wrap;html=1;fixedSize=1;" vertex="1" parent="WIyWlLk6GJQsqaUBKTNV-1">
          <mxGeometry x="90" y="430" width="260" height="60" as="geometry" />
        </mxCell>
        <mxCell id="oCqQ5Aj07aLdvRWGt-kK-10" value="KONEC" style="ellipse;whiteSpace=wrap;html=1;" vertex="1" parent="WIyWlLk6GJQsqaUBKTNV-1">
          <mxGeometry x="160" y="540" width="120" height="80" as="geometry" />
        </mxCell>
        <mxCell id="oCqQ5Aj07aLdvRWGt-kK-16" value="" style="edgeStyle=orthogonalEdgeStyle;rounded=0;orthogonalLoop=1;jettySize=auto;html=1;" edge="1" parent="WIyWlLk6GJQsqaUBKTNV-1" source="oCqQ5Aj07aLdvRWGt-kK-13" target="oCqQ5Aj07aLdvRWGt-kK-15">
          <mxGeometry relative="1" as="geometry" />
        </mxCell>
        <mxCell id="oCqQ5Aj07aLdvRWGt-kK-18" value="ANO" style="edgeLabel;html=1;align=center;verticalAlign=middle;resizable=0;points=[];" vertex="1" connectable="0" parent="oCqQ5Aj07aLdvRWGt-kK-16">
          <mxGeometry x="-0.1587" y="2" relative="1" as="geometry">
            <mxPoint as="offset" />
          </mxGeometry>
        </mxCell>
        <mxCell id="oCqQ5Aj07aLdvRWGt-kK-21" value="" style="edgeStyle=orthogonalEdgeStyle;rounded=0;orthogonalLoop=1;jettySize=auto;html=1;" edge="1" parent="WIyWlLk6GJQsqaUBKTNV-1" source="oCqQ5Aj07aLdvRWGt-kK-13" target="oCqQ5Aj07aLdvRWGt-kK-20">
          <mxGeometry relative="1" as="geometry" />
        </mxCell>
        <mxCell id="oCqQ5Aj07aLdvRWGt-kK-23" value="NE" style="edgeLabel;html=1;align=center;verticalAlign=middle;resizable=0;points=[];" vertex="1" connectable="0" parent="oCqQ5Aj07aLdvRWGt-kK-21">
          <mxGeometry x="0.025" y="-2" relative="1" as="geometry">
            <mxPoint as="offset" />
          </mxGeometry>
        </mxCell>
        <mxCell id="oCqQ5Aj07aLdvRWGt-kK-13" value="&lt;div&gt;Rovna se prvek mezi prsticky cislu?&lt;/div&gt;" style="rhombus;whiteSpace=wrap;html=1;" vertex="1" parent="WIyWlLk6GJQsqaUBKTNV-1">
          <mxGeometry x="370" y="230" width="140" height="80" as="geometry" />
        </mxCell>
        <mxCell id="oCqQ5Aj07aLdvRWGt-kK-17" style="edgeStyle=orthogonalEdgeStyle;rounded=0;orthogonalLoop=1;jettySize=auto;html=1;entryX=1;entryY=0.5;entryDx=0;entryDy=0;" edge="1" parent="WIyWlLk6GJQsqaUBKTNV-1" source="oCqQ5Aj07aLdvRWGt-kK-15" target="oCqQ5Aj07aLdvRWGt-kK-10">
          <mxGeometry relative="1" as="geometry">
            <Array as="points">
              <mxPoint x="440" y="580" />
            </Array>
          </mxGeometry>
        </mxCell>
        <mxCell id="oCqQ5Aj07aLdvRWGt-kK-15" value="return index" style="shape=parallelogram;perimeter=parallelogramPerimeter;whiteSpace=wrap;html=1;fixedSize=1;" vertex="1" parent="WIyWlLk6GJQsqaUBKTNV-1">
          <mxGeometry x="380" y="400" width="120" height="60" as="geometry" />
        </mxCell>
        <mxCell id="oCqQ5Aj07aLdvRWGt-kK-26" value="" style="edgeStyle=orthogonalEdgeStyle;rounded=0;orthogonalLoop=1;jettySize=auto;html=1;" edge="1" parent="WIyWlLk6GJQsqaUBKTNV-1" source="oCqQ5Aj07aLdvRWGt-kK-20" target="oCqQ5Aj07aLdvRWGt-kK-25">
          <mxGeometry relative="1" as="geometry" />
        </mxCell>
        <mxCell id="oCqQ5Aj07aLdvRWGt-kK-27" value="ANO" style="edgeLabel;html=1;align=center;verticalAlign=middle;resizable=0;points=[];" vertex="1" connectable="0" parent="oCqQ5Aj07aLdvRWGt-kK-26">
          <mxGeometry x="-0.1058" y="-3" relative="1" as="geometry">
            <mxPoint as="offset" />
          </mxGeometry>
        </mxCell>
        <mxCell id="oCqQ5Aj07aLdvRWGt-kK-30" value="" style="edgeStyle=orthogonalEdgeStyle;rounded=0;orthogonalLoop=1;jettySize=auto;html=1;" edge="1" parent="WIyWlLk6GJQsqaUBKTNV-1" source="oCqQ5Aj07aLdvRWGt-kK-20" target="oCqQ5Aj07aLdvRWGt-kK-29">
          <mxGeometry relative="1" as="geometry" />
        </mxCell>
        <mxCell id="oCqQ5Aj07aLdvRWGt-kK-32" value="NE" style="edgeLabel;html=1;align=center;verticalAlign=middle;resizable=0;points=[];" vertex="1" connectable="0" parent="oCqQ5Aj07aLdvRWGt-kK-30">
          <mxGeometry x="0.0295" y="2" relative="1" as="geometry">
            <mxPoint as="offset" />
          </mxGeometry>
        </mxCell>
        <mxCell id="oCqQ5Aj07aLdvRWGt-kK-20" value="&lt;div&gt;je prvek vetsi nez cislo?&lt;/div&gt;" style="rhombus;whiteSpace=wrap;html=1;" vertex="1" parent="WIyWlLk6GJQsqaUBKTNV-1">
          <mxGeometry x="590" y="230" width="140" height="80" as="geometry" />
        </mxCell>
        <mxCell id="oCqQ5Aj07aLdvRWGt-kK-33" style="edgeStyle=orthogonalEdgeStyle;rounded=0;orthogonalLoop=1;jettySize=auto;html=1;entryX=1;entryY=0;entryDx=0;entryDy=0;" edge="1" parent="WIyWlLk6GJQsqaUBKTNV-1" source="oCqQ5Aj07aLdvRWGt-kK-25" target="oCqQ5Aj07aLdvRWGt-kK-5">
          <mxGeometry relative="1" as="geometry">
            <Array as="points">
              <mxPoint x="600" y="210" />
              <mxPoint x="255" y="210" />
            </Array>
          </mxGeometry>
        </mxCell>
        <mxCell id="oCqQ5Aj07aLdvRWGt-kK-25" value="posun levy prsticek za pulku" style="shape=parallelogram;perimeter=parallelogramPerimeter;whiteSpace=wrap;html=1;fixedSize=1;" vertex="1" parent="WIyWlLk6GJQsqaUBKTNV-1">
          <mxGeometry x="565" y="100" width="190" height="60" as="geometry" />
        </mxCell>
        <mxCell id="oCqQ5Aj07aLdvRWGt-kK-35" style="edgeStyle=orthogonalEdgeStyle;rounded=0;orthogonalLoop=1;jettySize=auto;html=1;entryX=1;entryY=0;entryDx=0;entryDy=0;" edge="1" parent="WIyWlLk6GJQsqaUBKTNV-1" source="oCqQ5Aj07aLdvRWGt-kK-29" target="oCqQ5Aj07aLdvRWGt-kK-5">
          <mxGeometry relative="1" as="geometry">
            <Array as="points">
              <mxPoint x="925" y="60" />
              <mxPoint x="440" y="60" />
              <mxPoint x="440" y="210" />
              <mxPoint x="255" y="210" />
            </Array>
          </mxGeometry>
        </mxCell>
        <mxCell id="oCqQ5Aj07aLdvRWGt-kK-29" value="&lt;div&gt;posun pravy prsticek pred &quot;pulku&quot;&lt;br&gt;&lt;/div&gt;" style="shape=parallelogram;perimeter=parallelogramPerimeter;whiteSpace=wrap;html=1;fixedSize=1;" vertex="1" parent="WIyWlLk6GJQsqaUBKTNV-1">
          <mxGeometry x="820" y="240" width="210" height="60" as="geometry" />
        </mxCell>
      </root>
    </mxGraphModel>
  </diagram>
</mxfile>
